<?xml version="1.0" encoding="UTF-8"?>
<svg version="1.1" xmlns="http://www.w3.org/2000/svg" width="1250" height="1932">
<path d="M0 0 C412.5 0 825 0 1250 0 C1250 637.56 1250 1275.12 1250 1932 C837.5 1932 425 1932 0 1932 C0 1294.44 0 656.88 0 0 Z " fill="#141A19" transform="translate(0,0)"/>
<path d="M0 0 C2.64 0 5.28 0 8 0 C8.33 9.24 8.66 18.48 9 28 C9.33 27.34 9.66 26.68 10 26 C10.66 26 11.32 26 12 26 C12 25.34 12 24.68 12 24 C17.5135215 20.42366173 22.64187426 20.2221923 29 21 C35.38512222 22.64282733 38.44623357 26.33133625 41.87109375 31.78125 C45.23908366 38.40069037 44.98924971 46.80558124 43.31640625 53.8984375 C41.27385054 59.54301055 39.00234812 62.69845024 34 66 C33.113125 66.598125 32.22625 67.19625 31.3125 67.8125 C26.4689769 69.54885734 22.07682903 69.9178448 17 69 C13.52762996 67.14217144 10.77109474 64.77109474 8 62 C7.505 64.97 7.505 64.97 7 68 C4.69 68 2.38 68 0 68 C0 45.56 0 23.12 0 0 Z " fill="#9EA5A8" transform="translate(940,1478)"/>
<path d="M0 0 C4.74981072 3.21675614 7.71871602 7.86872447 9.09375 13.41796875 C10.14210821 22.13529514 9.28645038 29.20298556 4.09375 36.41796875 C-0.42752158 41.47548417 -4.85740691 43.99991282 -11.66796875 44.703125 C-17.71532125 44.99904313 -22.19132453 44.6757431 -27.15234375 41.05078125 C-32.07906047 36.46421647 -35.64201989 31.77746587 -36.1796875 24.94140625 C-36.45313509 16.97098657 -36.6862856 9.65432295 -30.90625 3.41796875 C-28.734375 2.19140625 -28.734375 2.19140625 -26.90625 1.41796875 C-26.90625 0.75796875 -26.90625 0.09796875 -26.90625 -0.58203125 C-17.45299479 -4.86275059 -9.18497171 -5.18834636 0 0 Z " fill="#9EA3A5" transform="translate(1026.90625,1502.58203125)"/>
<path d="M0 0 C3.3 0 6.6 0 10 0 C10.24234375 0.98097656 10.4846875 1.96195313 10.734375 2.97265625 C11.07265887 4.33600149 11.41122204 5.69927745 11.75 7.0625 C11.92756836 7.77825195 12.10513672 8.49400391 12.28808594 9.23144531 C13.20863842 12.91850877 14.15220416 16.59643915 15.15625 20.26171875 C15.33961914 20.93259521 15.52298828 21.60347168 15.71191406 22.29467773 C16.2255553 24.1611717 16.74543542 26.02594544 17.265625 27.890625 C18 31 18 31 18 35 C18.66 35 19.32 35 20 35 C20.08636719 34.45214844 20.17273437 33.90429688 20.26171875 33.33984375 C21.46526091 26.54921598 23.52366965 20.15544357 25.7578125 13.65234375 C27.29402306 9.13549822 28.67385696 4.58220155 30 0 C32.64 0 35.28 0 38 0 C40.76860333 7.05688168 42.98440948 14.24932233 45.1875 21.5 C45.55552734 22.70398437 45.92355469 23.90796875 46.30273438 25.1484375 C47.20407493 28.09827932 48.10309966 31.04880572 49 34 C49.19634033 33.32533691 49.39268066 32.65067383 49.5949707 31.95556641 C50.50039326 28.84525501 51.40644316 25.73512668 52.3125 22.625 C52.62123047 21.56410156 52.92996094 20.50320313 53.24804688 19.41015625 C55.13612777 12.9310576 57.05200684 6.46134346 59 0 C61.97 0 64.94 0 68 0 C66.44497428 6.68262337 64.38094606 13.12665981 62.1875 19.625 C61.83365234 20.68009766 61.47980469 21.73519531 61.11523438 22.82226562 C58.50313545 30.58243567 55.81559179 38.31126858 53 46 C50.36 46 47.72 46 45 46 C43.89195025 42.87636366 42.78930462 39.7508441 41.6875 36.625 C41.37876953 35.75488281 41.07003906 34.88476562 40.75195312 33.98828125 C34.50733527 16.24041997 34.50733527 16.24041997 35 10 C34.34 10 33.68 10 33 10 C33.04511719 10.84256348 33.09023437 11.68512695 33.13671875 12.55322266 C32.98180996 16.45858392 32.0759684 19.45279244 30.8125 23.1484375 C30.59053955 23.80582916 30.3685791 24.46322083 30.13989258 25.14053345 C29.4350586 27.22168272 28.71777091 29.29828163 28 31.375 C27.51739732 32.79268585 27.03561793 34.21065224 26.5546875 35.62890625 C25.37929683 39.08923367 24.19270492 42.54559666 23 46 C20.03 46 17.06 46 14 46 C13.64808594 44.81148437 13.29617188 43.62296875 12.93359375 42.3984375 C9.82580837 31.94894863 6.61583524 21.53853818 3.27319336 11.16162109 C2.84985718 9.84411865 2.84985718 9.84411865 2.41796875 8.5 C2.16813232 7.7265625 1.9182959 6.953125 1.66088867 6.15625 C1.03803838 4.12410601 0.51549814 2.06199257 0 0 Z " fill="#9CA0A1" transform="translate(1040,1500)"/>
<path d="M0 0 C-0.66 1.98 -1.32 3.96 -2 6 C-2.61875 5.835 -3.2375 5.67 -3.875 5.5 C-12.2657899 4.1270444 -12.2657899 4.1270444 -20 6.875 C-22.79494324 10.8252268 -22.79494324 10.8252268 -24 20 C-15.09 20 -6.18 20 3 20 C3 35.18 3 50.36 3 66 C0.36 66 -2.28 66 -5 66 C-5 52.8 -5 39.6 -5 26 C-11.27 26 -17.54 26 -24 26 C-24 39.2 -24 52.4 -24 66 C-26.64 66 -29.28 66 -32 66 C-32 53.13 -32 40.26 -32 27 C-34.31 27 -36.62 27 -39 27 C-39 24.69 -39 22.38 -39 20 C-36.69 20 -34.38 20 -32 20 C-32.103125 18.72125 -32.20625 17.4425 -32.3125 16.125 C-32.27552648 10.27393973 -30.56079056 5.64487199 -27 1 C-19.14338505 -5.12469583 -8.41482557 -4.48790697 0 0 Z " fill="#A0ADB1" transform="translate(831,1480)"/>
<path d="M0 0 C2.97 0 5.94 0 9 0 C9 8.91 9 17.82 9 27 C12.465 24.525 12.465 24.525 16 22 C20.794013 20.40199567 25.39064915 20.10274953 30.2265625 21.765625 C35.2436571 24.43389254 37.26465002 27.62347555 39.22143555 32.83935547 C40.81860826 39.32320558 40.40606194 45.99531219 40.25 52.625 C40.22989241 54.12106968 40.21164921 55.61716564 40.1953125 57.11328125 C40.15168115 60.74274238 40.08289303 64.37119819 40 68 C37.03 68 34.06 68 31 68 C30.98541748 67.05680908 30.97083496 66.11361816 30.95581055 65.1418457 C30.89460394 61.62841339 30.82042492 58.11574554 30.73754883 54.6027832 C30.70438084 53.08498379 30.67632368 51.56706344 30.65356445 50.04907227 C30.61986722 47.86161981 30.56754796 45.67526736 30.51171875 43.48828125 C30.48553467 42.17384033 30.45935059 40.85939941 30.43237305 39.50512695 C29.90300446 35.21368434 28.69065824 32.37757338 25.3125 29.625 C21.78794582 28.67241779 18.40054683 28.7398346 15 30 C11.56495807 32.74453237 10.14426146 34.21310477 9.34057617 38.59692383 C9.29983506 39.96644568 9.28522748 41.33692541 9.29296875 42.70703125 C9.27784744 43.43242599 9.26272614 44.15782074 9.24714661 44.90519714 C9.20437173 47.20795013 9.19544259 49.50938984 9.1875 51.8125 C9.16434739 53.37959196 9.13898044 54.94665286 9.11132812 56.51367188 C9.04857806 60.34256345 9.01616299 64.17063984 9 68 C6.03 68 3.06 68 0 68 C0 45.56 0 23.12 0 0 Z " fill="#9AA5A8" transform="translate(886,1478)"/>
<path d="M0 0 C3.77499879 2.13369497 5.94799197 4.64208213 7.4921875 8.7421875 C8.9119752 15.05478206 9.11429746 21.59997469 6.375 27.5 C5.59125 28.325 4.8075 29.15 4 30 C3.32904297 30.72316406 3.32904297 30.72316406 2.64453125 31.4609375 C-0.03929812 34.06561908 -1.85502598 34.97965277 -5.5625 35.5 C-10.46614599 34.7867424 -12.85667579 33.24132342 -16.1875 29.625 C-20.1845994 23.83609743 -20.55397924 18.76243439 -19.7578125 11.91796875 C-18.70626911 6.30616064 -16.35130484 3.64088772 -12 0 C-7.80930327 -1.39689891 -4.27836183 -0.95660555 0 0 Z " fill="#17282B" transform="translate(1019,1506)"/>
<path d="M0 0 C3.86323046 2.54603754 5.62931944 4.53798681 7.00390625 9.05078125 C7.75278653 15.85165916 7.87900002 22.5322692 4.26171875 28.52734375 C1.70153616 31.62818602 -1.04169537 32.74198631 -4.94921875 33.359375 C-8.74524893 33.59843797 -10.83217867 33.13119242 -14.30859375 31.42578125 C-18.26813959 27.92664771 -19.75136727 25.36812956 -20.3125 20.0546875 C-20.55233144 13.3626168 -20.4064352 7.39249916 -15.99609375 2.05078125 C-11.20368079 -1.43460999 -5.45679169 -2.59491268 0 0 Z " fill="#1B3136" transform="translate(967.99609375,1506.94921875)"/>
<path d="M0 0 C0.94875 0.33 1.8975 0.66 2.875 1 C2.545 3.31 2.215 5.62 1.875 8 C1.029375 7.67 0.18375 7.34 -0.6875 7 C-4.42207971 5.91357681 -7.25584414 5.64174483 -11.125 6 C-13.52583438 7.35885116 -13.52583438 7.35885116 -15.125 9 C-14.795 11.64 -14.465 14.28 -14.125 17 C-13.4959375 17.14695312 -12.866875 17.29390625 -12.21875 17.4453125 C-5.83393901 19.11844068 -0.96970212 21.45888235 3.875 26 C6.08009054 30.41018108 5.25358991 35.74592091 3.875 40.3125 C1.04700577 44.11261724 -1.54674524 45.7759047 -6.125 47 C-13.16625252 47.70730415 -19.17106138 48.22718429 -25.125 44 C-24.63 41.03 -24.63 41.03 -24.125 38 C-18.375 38.875 -18.375 38.875 -16.125 40 C-10.70208915 40.3930265 -10.70208915 40.3930265 -5.625 38.875 C-3.49171292 36.20839115 -3.77169539 34.32106337 -4.125 31 C-5.61037408 28.02925184 -7.74250664 27.88283888 -10.8125 26.75 C-16.28628569 24.50835443 -19.67568337 22.84768824 -23.125 18 C-24.43810498 13.73618212 -24.66544975 10.35112439 -23 6.1875 C-16.53001691 -1.3608136 -9.44555488 -2.7235649 0 0 Z " fill="#9DABAE" transform="translate(870.125,1500)"/>
<path d="M0 0 C2.97 0 5.94 0 9 0 C9 22.44 9 44.88 9 68 C6.03 68 3.06 68 0 68 C0 45.56 0 23.12 0 0 Z " fill="#9B9E9F" transform="translate(1117,1478)"/>
<path d="M0 0 C2.64 0 5.28 0 8 0 C8.0292427 4.33331896 8.04688017 8.66661221 8.0625 13 C8.07087891 14.22074219 8.07925781 15.44148438 8.08789062 16.69921875 C8.10464844 22.89960932 7.97272146 28.8726207 7 35 C7.33 35 7.66 35 8 35 C8 45.89 8 56.78 8 68 C5.36 68 2.72 68 0 68 C0 45.56 0 23.12 0 0 Z " fill="#A3AEB2" transform="translate(886,1478)"/>
<path d="M0 0 C2.64 0 5.28 0 8 0 C8.02469321 4.2358357 8.04285671 8.47163342 8.05493164 12.70751953 C8.05996474 14.1489332 8.06679173 15.59034176 8.07543945 17.03173828 C8.08754983 19.10190085 8.09323847 21.17199601 8.09765625 23.2421875 C8.10289307 24.4885498 8.10812988 25.73491211 8.11352539 27.01904297 C8 30 8 30 7 32 C7.30442672 33.34022881 7.64266317 34.67289817 8 36 C8.32955864 39.38834293 8.46229373 42.78741756 8.625 46.1875 C8.6765625 47.11498047 8.728125 48.04246094 8.78125 48.99804688 C8.82507813 49.87912109 8.86890625 50.76019531 8.9140625 51.66796875 C8.9548291 52.47516357 8.9955957 53.2823584 9.03759766 54.11401367 C9 56 9 56 8 57 C7.76636119 58.84891946 7.58696365 60.70488031 7.4375 62.5625 C7.31181641 64.08037109 7.31181641 64.08037109 7.18359375 65.62890625 C7.12300781 66.41136719 7.06242188 67.19382812 7 68 C4.69 68 2.38 68 0 68 C0 45.56 0 23.12 0 0 Z " fill="#A3ABAE" transform="translate(940,1478)"/>
<path d="M0 0 C0.66 0 1.32 0 2 0 C1.67 1.65 1.34 3.3 1 5 C6.15778241 5.10315565 10.90499782 4.86723441 16 4 C18.67339471 3.91441109 21.32384849 3.95539747 24 4 C24.66 4 25.32 4 26 4 C27.32 4 28.64 4 30 4 C27.84021106 8.63689284 25.35490841 12.20198971 21 15 C13.8361934 16.66878893 6.1906838 16.39174525 -1 15 C-2.7421875 13.453125 -2.7421875 13.453125 -4 12 C-3.67 11.46375 -3.34 10.9275 -3 10.375 C-1.79788698 7.94947174 -1.79788698 7.94947174 -2 4.875 C-2 2 -2 2 0 0 Z " fill="#1B6251" transform="translate(674,561)"/>
<path d="M0 0 C2.61218429 3.88664099 2.25415198 7.98880926 2.1953125 12.484375 C2.1924826 13.29996887 2.18965271 14.11556274 2.18673706 14.95587158 C2.17556558 17.55406528 2.15046675 20.15191095 2.125 22.75 C2.11496627 24.51431793 2.10584111 26.27864128 2.09765625 28.04296875 C2.07563619 32.36211273 2.04112733 36.68099741 2 41 C-0.64 41 -3.28 41 -6 41 C-6 29.45 -6 17.9 -6 6 C-4.68 6.33 -3.36 6.66 -2 7 C-1.67 6.01 -1.34 5.02 -1 4 C-1 4.99 -1 5.98 -1 7 C-0.34 7 0.32 7 1 7 C0.67 4.69 0.34 2.38 0 0 Z " fill="#A1AFB4" transform="translate(805,1505)"/>
<path d="M0 0 C4.55273797 0.54015535 5.86499801 1.9307551 8.6875 5.4375 C8.6875 5.7675 8.6875 6.0975 8.6875 6.4375 C6.0475 6.4375 3.4075 6.4375 0.6875 6.4375 C0.6875 8.7475 0.6875 11.0575 0.6875 13.4375 C0.0275 13.1075 -0.6325 12.7775 -1.3125 12.4375 C-1.291875 13.241875 -1.27125 14.04625 -1.25 14.875 C-1.3125 17.4375 -1.3125 17.4375 -2.3125 18.4375 C-2.46964654 20.07006758 -2.56335414 21.70885338 -2.62890625 23.34765625 C-2.69174805 24.83168945 -2.69174805 24.83168945 -2.75585938 26.34570312 C-2.79517578 27.38662109 -2.83449219 28.42753906 -2.875 29.5 C-2.93977539 31.06717773 -2.93977539 31.06717773 -3.00585938 32.66601562 C-3.11231225 35.25636884 -3.2143276 37.84682186 -3.3125 40.4375 C-3.6425 39.4475 -3.9725 38.4575 -4.3125 37.4375 C-7.09933477 35.92512261 -7.09933477 35.92512261 -10.3125 35.4375 C-12.69555196 36.68098469 -12.69555196 36.68098469 -14.3125 38.4375 C-13.6525 35.4675 -12.9925 32.4975 -12.3125 29.4375 C-22.73057754 27.58107063 -22.73057754 27.58107063 -32.6875 30.125 C-35.25516605 32.38699152 -37.31129363 34.66659888 -39.3125 37.4375 C-38.75054235 33.50379643 -37.75657389 30.60574393 -35.3125 27.4375 C-33.9925 27.4375 -32.6725 27.4375 -31.3125 27.4375 C-30.9825 26.4475 -30.6525 25.4575 -30.3125 24.4375 C-29.80203125 24.61152344 -29.2915625 24.78554687 -28.765625 24.96484375 C-25.44225935 25.60517376 -22.42999265 25.28062439 -19.0625 25 C-17.16757812 24.84724609 -17.16757812 24.84724609 -15.234375 24.69140625 C-13.78804687 24.56572266 -13.78804687 24.56572266 -12.3125 24.4375 C-12.044375 25.076875 -11.77625 25.71625 -11.5 26.375 C-10.42582248 28.76881686 -10.42582248 28.76881686 -7.3125 29.4375 C-4.8634919 25.67275029 -5.14182807 22.33360721 -5.25 17.9375 C-5.34208993 13.86952727 -5.41520381 10.35209851 -4.3125 6.4375 C-4.498125 5.73625 -4.68375 5.035 -4.875 4.3125 C-5.019375 3.69375 -5.16375 3.075 -5.3125 2.4375 C-3.3125 0.4375 -3.3125 0.4375 0 0 Z M7.6875 3.4375 C9.6875 4.4375 9.6875 4.4375 9.6875 4.4375 Z " fill="#193E47" transform="translate(885.3125,1471.5625)"/>
<path d="M0 0 C0.94875 0.04125 1.8975 0.0825 2.875 0.125 C4.30626997 4.41880991 3.91744685 8.66966777 3.8359375 13.14453125 C3.793445 16.94761004 3.94745422 20.42930977 4.875 24.125 C2.875 23.45833333 0.875 22.79166667 -1.125 22.125 C-2.115 22.125 -3.105 22.125 -4.125 22.125 C-4.063125 23.218125 -4.00125 24.31125 -3.9375 25.4375 C-4.125 29.125 -4.125 29.125 -5.3125 31.0625 C-7.68541618 32.45351983 -9.42186424 32.34417317 -12.125 32.125 C-12.125 33.775 -12.125 35.425 -12.125 37.125 C-16.10696457 38.17904945 -19.10695309 37.96598656 -23.125 37.125 C-20.22889061 34.6814077 -17.36689507 32.69704962 -14.0625 30.875 C-8.66551562 27.59607742 -7.04994883 22.89984648 -5.125 17.125 C-5.09987833 13.90583682 -5.1520837 10.7033343 -5.25195312 7.48632812 C-5.28177172 5.69896651 -5.20983134 3.91059636 -5.125 2.125 C-3.125 0.125 -3.125 0.125 0 0 Z " fill="#192B2D" transform="translate(988.125,1511.875)"/>
<path d="M0 0 C2.4375 0.375 2.4375 0.375 5 1 C5.33 1.66 5.66 2.32 6 3 C6.66 2.01 7.32 1.02 8 0 C8.99 0 9.98 0 11 0 C11.86316536 2.62235014 12.71580779 5.24733452 13.5625 7.875 C13.80935547 8.62136719 14.05621094 9.36773438 14.31054688 10.13671875 C16.11328125 15.7734375 16.11328125 15.7734375 15 18 C14.34 17.34 13.68 16.68 13 16 C12.67 16.99 12.34 17.98 12 19 C12.66 19.33 13.32 19.66 14 20 C13.360625 20.556875 12.72125 21.11375 12.0625 21.6875 C9.80319013 24.22066561 9.36850953 25.68341424 9 29 C6 30 6 30 3 29 C3.15984375 28.46761719 3.3196875 27.93523437 3.484375 27.38671875 C5.29558978 19.00298973 4.26847442 10.82401649 1 3 C0.67 2.01 0.34 1.02 0 0 Z " fill="#112124" transform="translate(1031,1504)"/>
<path d="M0 0 C0.66386719 0.08378906 1.32773437 0.16757813 2.01171875 0.25390625 C7.49150425 0.93878645 7.49150425 0.93878645 12.9375 0.375 C15 0 15 0 16.8125 1.25 C18 3 18 3 18 6 C19.65 6.66 21.3 7.32 23 8 C21.1875 9.0625 21.1875 9.0625 19 10 C18.01 9.67 17.02 9.34 16 9 C15.07787236 11.76638293 14.90140713 13.23887881 14.97265625 16.0703125 C14.98619141 16.87694336 14.99972656 17.68357422 15.01367188 18.51464844 C15.02978516 19.37606445 15.04589844 20.23748047 15.0625 21.125 C15.16592094 30.56043713 14.35327538 39.67206613 13 49 C14.32 48.34 15.64 47.68 17 47 C17.79953138 50.28696233 18.09658936 51.71023192 17 55 C16.236875 54.484375 15.47375 53.96875 14.6875 53.4375 C13.800625 52.963125 12.91375 52.48875 12 52 C10.515 52.495 10.515 52.495 9 53 C8.01 53 7.02 53 6 53 C6 53.66 6 54.32 6 55 C4.68 55 3.36 55 2 55 C2.875 50.125 2.875 50.125 4 49 C6.64 49 9.28 49 12 49 C12 33.82 12 18.64 12 3 C8.37 3 4.74 3 1 3 C0.67 2.01 0.34 1.02 0 0 Z " fill="#2B474E" transform="translate(822,1497)"/>
<path d="M0 0 C2.97 0.495 2.97 0.495 6 1 C6 1.66 6 2.32 6 3 C8.8509288 2.2981424 8.8509288 2.2981424 10 1 C11.99958364 0.95919217 14.00045254 0.95745644 16 1 C15.835 1.78375 15.67 2.5675 15.5 3.375 C14.87584139 6.6518327 14.92593 7.77779 16 11 C16.45658819 14.086305 16.58350136 16.92581227 16 20 C14.22661081 22.34020029 12.53017342 23.36282896 10 25 C9.01 25.66 8.02 26.32 7 27 C7 28.32 7 29.64 7 31 C4.69 31.66 2.38 32.32 0 33 C-0.99 31.35 -1.98 29.7 -3 28 C-1.5437455 27.32880451 -0.08492133 26.66318193 1.375 26 C2.18710937 25.62875 2.99921875 25.2575 3.8359375 24.875 C6 24 6 24 8 24 C10.0286653 19.05512832 10.95973471 14.28833411 10 9 C7.91666667 6.08333333 7.91666667 6.08333333 5 4 C4.071875 3.236875 3.14375 2.47375 2.1875 1.6875 C1.465625 1.130625 0.74375 0.57375 0 0 Z " fill="#173C43" transform="translate(864,1519)"/>
<path d="M0 0 C1.60875 0.2784375 1.60875 0.2784375 3.25 0.5625 C6.46490625 0.9375724 8.0460953 0.9846349 11 0 C11.66 0 12.32 0 13 0 C12.125 4.875 12.125 4.875 11 6 C10.91314397 7.56172745 10.89297781 9.12729344 10.90234375 10.69140625 C10.90556641 11.63564453 10.90878906 12.57988281 10.91210938 13.55273438 C10.92048828 14.54595703 10.92886719 15.53917969 10.9375 16.5625 C10.94201172 17.55958984 10.94652344 18.55667969 10.95117188 19.58398438 C10.96299993 22.05604849 10.97948151 24.52799518 11 27 C11.66 27 12.32 27 13 27 C13 26.34 13 25.68 13 25 C15.89234315 24.17361624 17.88742431 24 21 24 C21.66 23.98839844 22.32 23.97679687 23 23.96484375 C26.49118565 23.9171127 29.64568318 23.88189439 33 25 C33 25.66 33 26.32 33 27 C34.32 27.33 35.64 27.66 37 28 C36.34 28.66 35.68 29.32 35 30 C33.93072266 29.51273438 33.93072266 29.51273438 32.83984375 29.015625 C26.46716942 26.73653927 19.17079173 27.33154952 13 30 C13 30.66 13 31.32 13 32 C12.34 32 11.68 32 11 32 C10.67 32.99 10.34 33.98 10 35 C9.67 35 9.34 35 9 35 C9 25.43 9 15.86 9 6 C6.36 6 3.72 6 1 6 C0 1.125 0 1.125 0 0 Z " fill="#2E454D" transform="translate(939,1472)"/>
<path d="M0 0 C6.27 0 12.54 0 19 0 C19 11.55 19 23.1 19 35 C18.67 35 18.34 35 18 35 C17.67 25.1 17.34 15.2 17 5 C15.02 5 13.04 5 11 5 C9.12488426 5 7.24958447 4.98213296 5.375 4.9375 C3.04437265 4.72620721 3.04437265 4.72620721 2 6 C1.84011509 8.51880517 1.74065775 11.01342266 1.68359375 13.53515625 C1.66281265 14.28840683 1.64203156 15.04165741 1.62062073 15.81773376 C1.55504575 18.2325599 1.49620379 20.64749798 1.4375 23.0625 C1.3943223 24.69597529 1.35070827 26.3294391 1.30664062 27.96289062 C1.19935638 31.97514464 1.09811179 35.98751164 1 40 C0.67 40 0.34 40 0 40 C0 26.8 0 13.6 0 0 Z " fill="#304C52" transform="translate(807,1506)"/>
<path d="M0 0 C1.74627478 2.61941217 2.38722388 4.03824877 3 7 C3.66 7 4.32 7 5 7 C6.76462683 10.08809695 7 11.23312136 7 15 C7.66 15 8.32 15 9 15 C8.67 15.99 8.34 16.98 8 18 C1.10995658 17.8832196 1.10995658 17.8832196 -1.64453125 15.69140625 C-5.37374174 11.03795339 -5.5907317 6.78917064 -5 1 C-3.35 0.67 -1.7 0.34 0 0 Z " fill="#2D4D45" transform="translate(653,545)"/>
<path d="M0 0 C2.4375 1.5 2.4375 1.5 4 3 C1.6875 5.0625 1.6875 5.0625 -1 7 C-1.99 6.67 -2.98 6.34 -4 6 C-3.67 6.66 -3.34 7.32 -3 8 C-2.67 8 -2.34 8 -2 8 C-2 9.98 -2 11.96 -2 14 C-7.38732394 13.40140845 -7.38732394 13.40140845 -9.8125 11.8125 C-11.4528699 9.30877752 -11.67321963 6.9410233 -12 4 C-8.02826652 0.14862208 -5.50727375 -0.70092575 0 0 Z " fill="#23444D" transform="translate(866,1505)"/>
<path d="M0 0 C0.33 0 0.66 0 1 0 C1 8.91 1 17.82 1 27 C4.465 24.525 4.465 24.525 8 22 C9.32 22.66 10.64 23.32 12 24 C10.35 24 8.7 24 7 24 C7 25.32 7 26.64 7 28 C7.99 28.33 8.98 28.66 10 29 C9.05125 29.433125 8.1025 29.86625 7.125 30.3125 C3.79958063 31.79302201 3.79958063 31.79302201 2 35 C1.76006345 37.53586848 1.62746781 39.97216031 1.5859375 42.51171875 C1.56657135 43.23994339 1.5472052 43.96816803 1.5272522 44.71846008 C1.46753624 47.04135475 1.42110383 49.36429919 1.375 51.6875 C1.33681279 53.26369332 1.29776062 54.83986595 1.2578125 56.41601562 C1.16184152 60.27717535 1.07778151 64.13843276 1 68 C0.67 68 0.34 68 0 68 C-0.02505615 67.04109863 -0.0501123 66.08219727 -0.07592773 65.09423828 C-0.1699862 61.54201523 -0.27021058 57.98998844 -0.37231445 54.43798828 C-0.41566926 52.89962347 -0.45734395 51.36121037 -0.49731445 49.82275391 C-0.55500398 47.6134586 -0.61870179 45.40440652 -0.68359375 43.1953125 C-0.70030624 42.50567413 -0.71701874 41.81603577 -0.73423767 41.10549927 C-0.80806995 37.42885736 -0.80806995 37.42885736 -2 34 C-1.7739625 32.4528501 -1.54278114 30.90636132 -1.29345703 29.36279297 C-0.62302302 23.96473943 -0.6112656 18.49481146 -0.4375 13.0625 C-0.39431641 11.80630859 -0.35113281 10.55011719 -0.30664062 9.25585938 C-0.20106381 6.17067032 -0.09895449 3.08540737 0 0 Z " fill="#829297" transform="translate(894,1478)"/>
<path d="M0 0 C2.93087207 2.25451698 3.82814288 3.48442865 5 7 C5.08178114 8.70016844 5.10749501 10.40336297 5.09765625 12.10546875 C5.09443359 13.08837891 5.09121094 14.07128906 5.08789062 15.08398438 C5.07951172 16.10814453 5.07113281 17.13230469 5.0625 18.1875 C5.05798828 19.22326172 5.05347656 20.25902344 5.04882812 21.32617188 C5.0370401 23.88417266 5.02058515 26.44205733 5 29 C4.67 29 4.34 29 4 29 C4 23.72 4 18.44 4 13 C3.01 12.67 2.02 12.34 1 12 C1.33 9.69 1.66 7.38 2 5 C1.34 5 0.68 5 0 5 C0 4.34 0 3.68 0 3 C-3.3 3.66 -6.6 4.32 -10 5 C-9.67 4.01 -9.34 3.02 -9 2 C-9.66 2 -10.32 2 -11 2 C-11.33 2.99 -11.66 3.98 -12 5 C-12.99 5.66 -13.98 6.32 -15 7 C-15.73343428 10.06556598 -15.73343428 10.06556598 -16 13 C-16.33 13 -16.66 13 -17 13 C-17.31346682 9.00329808 -17.40395059 6.67325099 -15.3125 3.1875 C-10.62017082 -1.25118976 -6.08133411 -1.78114388 0 0 Z " fill="#203C41" transform="translate(912,1507)"/>
<path d="M0 0 C2.64 1.98 5.28 3.96 8 6 C7.67 6.66 7.34 7.32 7 8 C4 7 4 7 2 6 C3.25541557 8.51083114 4.50063488 8.87125446 7 10 C6.34 10 5.68 10 5 10 C4.67 10.99 4.34 11.98 4 13 C3.21625 12.814375 2.4325 12.62875 1.625 12.4375 C-0.97089775 11.74037734 -0.97089775 11.74037734 -3 13 C-3.99 12.67 -4.98 12.34 -6 12 C-6.99 12.495 -6.99 12.495 -8 13 C-8.99 12.67 -9.98 12.34 -11 12 C-10.01 8.37 -9.02 4.74 -8 1 C-7.67 1 -7.34 1 -7 1 C-7 2.98 -7 4.96 -7 7 C-4.69 7 -2.38 7 0 7 C0 4.69 0 2.38 0 0 Z " fill="#1C2D34" transform="translate(947,1539)"/>
<path d="M0 0 C0.33 0.66 0.66 1.32 1 2 C1.99 2.33 2.98 2.66 4 3 C4 5.31 4 7.62 4 10 C3.01 10 2.02 10 1 10 C1.26739134 16.01630523 1.87364091 20.30053548 6 25 C8.60437233 26.41190564 8.60437233 26.41190564 11 27 C11 27.66 11 28.32 11 29 C3.76271186 27.45762712 3.76271186 27.45762712 1.125 25.875 C-2.72001505 19.46664158 -2.70282747 11.23498866 -2 4 C-0.984375 1.640625 -0.984375 1.640625 0 0 Z " fill="#10281A" transform="translate(647,536)"/>
<path d="M0 0 C1 3 1 3 0 6 C-3 7 -3 7 -7 7 C-7 6.34 -7 5.68 -7 5 C-9.31 5 -11.62 5 -14 5 C-14.66 6.32 -15.32 7.64 -16 9 C-16.99 9 -17.98 9 -19 9 C-19.99 11.31 -20.98 13.62 -22 16 C-18.95086772 17.01111093 -18.95086772 17.01111093 -16 16 C-13.875 16.9375 -13.875 16.9375 -12 18 C-12 18.33 -12 18.66 -12 19 C-15.96 19 -19.92 19 -24 19 C-24.31464883 13.75585282 -23.83856733 10.46060581 -21 6 C-17.20678231 2.51945535 -14.36996087 2.62274113 -9.41796875 2.76171875 C-6.66265756 3.03324376 -4.44497909 3.69601115 -2 5 C-1.34 3.35 -0.68 1.7 0 0 Z " fill="#264047" transform="translate(831,1481)"/>
<path d="M0 0 C1.32 0 2.64 0 4 0 C1.84021106 4.63689284 -0.64509159 8.20198971 -5 11 C-12.1638066 12.66878893 -19.8093162 12.39174525 -27 11 C-28.7421875 9.453125 -28.7421875 9.453125 -30 8 C-27 7 -27 7 -24 8 C-16.62101105 8.53145073 -8.57311583 8.91329687 -2 5 C-0.33665915 2.48248124 -0.33665915 2.48248124 0 0 Z " fill="#05453A" transform="translate(700,565)"/>
<path d="M0 0 C0.66 0 1.32 0 2 0 C3.66666667 6.66666667 5.33333333 13.33333333 7 20 C3.53058454 19.54177532 0.32604951 19.10868317 -3 18 C-2.51679152 11.7945858 -1.66681876 6.00054754 0 0 Z " fill="#0E1918" transform="translate(1073,1510)"/>
<path d="M0 0 C1.07765625 0.03609375 2.1553125 0.0721875 3.265625 0.109375 C4.49539063 0.17898438 4.49539063 0.17898438 5.75 0.25 C6.08 1.24 6.41 2.23 6.75 3.25 C5.75 5.25 5.75 5.25 4.0703125 5.8828125 C-2.09375098 7.26479115 -7.94696525 7.46206472 -14.25 7.25 C-14.25 6.59 -14.25 5.93 -14.25 5.25 C-13.38375 5.12625 -13.38375 5.12625 -12.5 5 C-10.08408148 4.40816299 -10.08408148 4.40816299 -8.5 2.21875 C-5.53591535 -0.37482407 -3.87384836 -0.16842819 0 0 Z " fill="#285F5D" transform="translate(692.25,564.75)"/>
<path d="M0 0 C0.33 0 0.66 0 1 0 C1 3.3 1 6.6 1 10 C3.97 10 6.94 10 10 10 C9.01 10.495 9.01 10.495 8 11 C8 11.66 8 12.32 8 13 C8.99 13 9.98 13 11 13 C10.67 13.99 10.34 14.98 10 16 C7.69 15.34 5.38 14.68 3 14 C3 14.66 3 15.32 3 16 C2.38125 15.814375 1.7625 15.62875 1.125 15.4375 C-1.04160178 14.76313824 -1.04160178 14.76313824 -3 16 C-2.67 14.02 -2.34 12.04 -2 10 C-2.99 9.67 -3.98 9.34 -5 9 C-3.50164236 5.88802644 -1.86022073 2.91164984 0 0 Z " fill="#1A363D" transform="translate(885,1536)"/>
<path d="M0 0 C0.33 0 0.66 0 1 0 C0.5382301 16.64680504 0.5382301 16.64680504 -5.8203125 22.74609375 C-7.50776105 24.22517315 -9.21981662 25.63485937 -11 27 C-11.25 24.75 -11.25 24.75 -11 22 C-9.66666667 20.66666667 -8.33333333 19.33333333 -7 18 C-6.22153272 16.11870406 -5.45096823 14.2314263 -4.79296875 12.3046875 C-3.8848228 9.66524853 -2.85731754 7.08821469 -1.8125 4.5 C-1.29623047 3.21609375 -1.29623047 3.21609375 -0.76953125 1.90625 C-0.51558594 1.2771875 -0.26164063 0.648125 0 0 Z " fill="#184336" transform="translate(715,538)"/>
<path d="M0 0 C1.56041016 0.00580078 1.56041016 0.00580078 3.15234375 0.01171875 C5.97383812 0.30333629 7.6598251 0.8593159 10.0625 2.3125 C9.7325 3.6325 9.4025 4.9525 9.0625 6.3125 C5.75107097 7.35657409 3.0648395 7.29054871 -0.375 6.9375 C-1.30183594 6.84726563 -2.22867188 6.75703125 -3.18359375 6.6640625 C-5.80316739 6.32964884 -8.35607848 5.86532711 -10.9375 5.3125 C-10.2775 4.6525 -9.6175 3.9925 -8.9375 3.3125 C-8.52371094 2.78269531 -8.10992188 2.25289062 -7.68359375 1.70703125 C-5.14741278 -0.31850925 -3.20061535 -0.0514314 0 0 Z " fill="#A1AAAA" transform="translate(1015.9375,1499.6875)"/>
<path d="M0 0 C2.4375 0.375 2.4375 0.375 5 1 C5.33 1.66 5.66 2.32 6 3 C6.66 2.01 7.32 1.02 8 0 C8.99 0 9.98 0 11 0 C11.86316536 2.62235014 12.71580779 5.24733452 13.5625 7.875 C13.80935547 8.62136719 14.05621094 9.36773438 14.31054688 10.13671875 C16.11328125 15.7734375 16.11328125 15.7734375 15 18 C14.34 17.34 13.68 16.68 13 16 C12.34 17.32 11.68 18.64 11 20 C10.92345464 15.48382401 10.89771304 11.40914783 12 7 C10.02 7.66 8.04 8.32 6 9 C5.34 8.34 4.68 7.68 4 7 C3.67 7.99 3.34 8.98 3 10 C2.690625 8.906875 2.38125 7.81375 2.0625 6.6875 C1.41662103 4.44592006 0.7376883 2.2130649 0 0 Z " fill="#19272B" transform="translate(1031,1504)"/>
<path d="M0 0 C0 0.66 0 1.32 0 2 C-4.95 3.485 -4.95 3.485 -10 5 C-10 5.66 -10 6.32 -10 7 C-11.6222454 8.70993434 -13.29413425 10.37347684 -15 12 C-15.8971875 12.8971875 -15.8971875 12.8971875 -16.8125 13.8125 C-17.204375 14.204375 -17.59625 14.59625 -18 15 C-18 13.02 -18 11.04 -18 9 C-17.01 8.67 -16.02 8.34 -15 8 C-14.9175 6.88625 -14.835 5.7725 -14.75 4.625 C-14 1 -14 1 -12.375 -0.4375 C-8.0520535 -1.46135575 -4.20719891 -1.40239964 0 0 Z " fill="#1F3133" transform="translate(1010,1497)"/>
<path d="M0 0 C0.598125 0.226875 1.19625 0.45375 1.8125 0.6875 C2.86654945 4.66946457 2.65348656 7.66945309 1.8125 11.6875 C1.1525 11.6875 0.4925 11.6875 -0.1875 11.6875 C-0.1875 11.0275 -0.1875 10.3675 -0.1875 9.6875 C-1.1775 10.1825 -1.1775 10.1825 -2.1875 10.6875 C-1.8575 12.0075 -1.5275 13.3275 -1.1875 14.6875 C-1.5175 14.0275 -1.8475 13.3675 -2.1875 12.6875 C-4.21213255 12.03536708 -4.21213255 12.03536708 -6.1875 11.6875 C-6.10003716 10.24888706 -5.99184652 8.81152492 -5.875 7.375 C-5.81699219 6.57449219 -5.75898437 5.77398438 -5.69921875 4.94921875 C-4.9379607 1.58457441 -3.61726231 -0.51675176 0 0 Z " fill="#A2B0B4" transform="translate(852.1875,1503.3125)"/>
<path d="M0 0 C0.51046875 0.17402344 1.0209375 0.34804687 1.546875 0.52734375 C4.87024065 1.16767376 7.88250735 0.84312439 11.25 0.5625 C12.51328125 0.46066406 13.7765625 0.35882812 15.078125 0.25390625 C16.52445313 0.12822266 16.52445313 0.12822266 18 0 C19.125 2.3125 19.125 2.3125 20 5 C19.01 6.485 19.01 6.485 18 8 C18 7.01 18 6.02 18 5 C7.58192246 3.14357063 7.58192246 3.14357063 -2.375 5.6875 C-4.94266605 7.94949152 -6.99879363 10.22909888 -9 13 C-8.43804235 9.06629643 -7.44407389 6.16824393 -5 3 C-3.68 3 -2.36 3 -1 3 C-0.67 2.01 -0.34 1.02 0 0 Z " fill="#29474E" transform="translate(855,1496)"/>
<path d="M0 0 C0.66 0.33 1.32 0.66 2 1 C3.42189409 0.88624847 4.83927438 0.711129 6.25 0.5 C10.05503466 0.01438168 13.2293886 0.12985891 17 1 C17 1.66 17 2.32 17 3 C18.32 3.33 19.64 3.66 21 4 C20.34 4.66 19.68 5.32 19 6 C18.28714844 5.67515625 17.57429687 5.3503125 16.83984375 5.015625 C10.46716942 2.73653927 3.17079173 3.33154952 -3 6 C-3 6.66 -3 7.32 -3 8 C-3.99 8.33 -4.98 8.66 -6 9 C-6 7.35 -6 5.7 -6 4 C-5.01 3.67 -4.02 3.34 -3 3 C-3 2.34 -3 1.68 -3 1 C-2.01 0.67 -1.02 0.34 0 0 Z " fill="#22353C" transform="translate(955,1496)"/>
<path d="M0 0 C2.31 0 4.62 0 7 0 C7.33 0.66 7.66 1.32 8 2 C6.68 2 5.36 2 4 2 C4 3.98 4 5.96 4 8 C6.64 8.99 9.28 9.98 12 11 C12 11.66 12 12.32 12 13 C8.53846154 16 8.53846154 16 6 16 C6 15.34 6 14.68 6 14 C4.68 14 3.36 14 2 14 C2 11.36 2 8.72 2 6 C1.34 6 0.68 6 0 6 C-1.125 2.25 -1.125 2.25 0 0 Z " fill="#1D3E45" transform="translate(842,1536)"/>
<path d="M0 0 C4.56454251 0.54339792 7.9728176 1.79463821 12 4 C11.01 4.33 10.02 4.66 9 5 C9.33 6.32 9.66 7.64 10 9 C5.32538149 9.32613618 2.83325617 8.70582788 -1 6 C-0.67 4.02 -0.34 2.04 0 0 Z " fill="#A6AFB5" transform="translate(846,1538)"/>
<path d="M0 0 C0.66 0.33 1.32 0.66 2 1 C1.8125 2.875 1.8125 2.875 1 5 C-3.03505709 7.32321469 -7.44720523 7.53700392 -12 8 C-12.66 6.02 -13.32 4.04 -14 2 C-9.20699867 0.60848348 -4.84864218 1.31337311 0 2 C0 1.34 0 0.68 0 0 Z " fill="#192F35" transform="translate(926,1544)"/>
<path d="M0 0 C0.66 0.33 1.32 0.66 2 1 C2 2.98 2 4.96 2 7 C1.01 7.495 1.01 7.495 0 8 C-0.350625 7.484375 -0.70125 6.96875 -1.0625 6.4375 C-3.09468727 4.59853617 -3.09468727 4.59853617 -6.6875 5.3125 C-8.3271875 5.6528125 -8.3271875 5.6528125 -10 6 C-10 6.66 -10 7.32 -10 8 C-11.32 8 -12.64 8 -14 8 C-13.125 3.125 -13.125 3.125 -12 2 C-9.16027465 1.67648699 -6.31926263 1.4869571 -3.46875 1.28125 C-1.0586395 1.26614735 -1.0586395 1.26614735 0 0 Z " fill="#19373F" transform="translate(838,1544)"/>
<path d="M0 0 C0 0.66 0 1.32 0 2 C0.66 2.33 1.32 2.66 2 3 C2 3.99 2 4.98 2 6 C2.33 5.34 2.66 4.68 3 4 C3.66 4 4.32 4 5 4 C4.67 5.32 4.34 6.64 4 8 C-0.29 7.67 -4.58 7.34 -9 7 C-9 6.34 -9 5.68 -9 5 C-8.34 5 -7.68 5 -7 5 C-6.87625 4.360625 -6.7525 3.72125 -6.625 3.0625 C-6.41875 2.381875 -6.2125 1.70125 -6 1 C-4 0 -4 0 0 0 Z " fill="#A2AAB0" transform="translate(966,1499)"/>
<path d="M0 0 C2.4375 1.5 2.4375 1.5 4 3 C2.35 4.32 0.7 5.64 -1 7 C-3.475 6.01 -3.475 6.01 -6 5 C-5.67 4.34 -5.34 3.68 -5 3 C-5.99 2.67 -6.98 2.34 -8 2 C-8 2.99 -8 3.98 -8 5 C-9.32 5.33 -10.64 5.66 -12 6 C-9.45214187 0.1203274 -6.16831446 -0.54108022 0 0 Z " fill="#1D3F47" transform="translate(866,1505)"/>
<path d="M0 0 C0.33 0.66 0.66 1.32 1 2 C1.66 2 2.32 2 3 2 C2.34 5.63 1.68 9.26 1 13 C0.34 12.67 -0.32 12.34 -1 12 C-1.99 13.485 -1.99 13.485 -3 15 C-3 12.03 -3 9.06 -3 6 C-3.66 6 -4.32 6 -5 6 C-5 5.01 -5 4.02 -5 3 C-3.35 2.67 -1.7 2.34 0 2 C0 1.34 0 0.68 0 0 Z " fill="#A6ACB2" transform="translate(806,1485)"/>
<path d="M0 0 C7.23214286 3.75 7.23214286 3.75 9 8 C7.95199219 7.87431641 7.95199219 7.87431641 6.8828125 7.74609375 C5.97273437 7.64425781 5.06265625 7.54242187 4.125 7.4375 C3.22007812 7.33308594 2.31515625 7.22867187 1.3828125 7.12109375 C-1.01653057 6.80325148 -1.01653057 6.80325148 -3 8 C-5.35981813 7.06421005 -7.69631264 6.06652192 -10 5 C-10 4.67 -10 4.34 -10 4 C-9.06027344 4.01740234 -9.06027344 4.01740234 -8.1015625 4.03515625 C-6.87566406 4.04869141 -6.87566406 4.04869141 -5.625 4.0625 C-4.40683594 4.07990234 -4.40683594 4.07990234 -3.1640625 4.09765625 C-0.95062858 4.14466334 -0.95062858 4.14466334 1 3 C0.67 2.01 0.34 1.02 0 0 Z " fill="#97A6A9" transform="translate(865,1520)"/>
<path d="M0 0 C6.81598387 -0.33278764 11.92122066 -0.24201565 18 3 C17.34 4.98 16.68 6.96 16 9 C14.35 8.67 12.7 8.34 11 8 C10.67 6.68 10.34 5.36 10 4 C10.66 3.67 11.32 3.34 12 3 C6.06 2.01 6.06 2.01 0 1 C0 0.67 0 0.34 0 0 Z M6 2 C8 3 8 3 8 3 Z " fill="#93A4A8" transform="translate(813,1477)"/>
<path d="M0 0 C1 1 2 2 3 3 C3.556875 3.433125 4.11375 3.86625 4.6875 4.3125 C6.62635078 6.80530815 6.20379762 8.94303577 6 12 C3 12 3 12 0.875 10.4375 C-1.51379206 7.33207032 -1.70360455 4.85314086 -2 1 C-1.34 0.67 -0.68 0.34 0 0 Z " fill="#A3A7A7" transform="translate(1051,1524)"/>
<path d="M0 0 C2.31 0 4.62 0 7 0 C7.66 1.32 8.32 2.64 9 4 C8.2884375 4.804375 8.2884375 4.804375 7.5625 5.625 C5.71813924 8.42842836 5.37543153 10.69620258 5 14 C3.38274466 10.99049877 2.32417377 8.02896392 1.375 4.75 C0.98441406 3.41195313 0.98441406 3.41195313 0.5859375 2.046875 C0.39257812 1.37140625 0.19921875 0.6959375 0 0 Z " fill="#9BA2A5" transform="translate(1040,1500)"/>
<path d="M0 0 C1.64869317 0.03780073 3.29594032 0.15470302 4.9375 0.3125 C5.83339844 0.39113281 6.72929688 0.46976563 7.65234375 0.55078125 C10 1 10 1 12 3 C10.68 4.32 9.36 5.64 8 7 C8 6.34 8 5.68 8 5 C6.68 5.33 5.36 5.66 4 6 C4 5.34 4 4.68 4 4 C2.02 4.33 0.04 4.66 -2 5 C-1.125 1.125 -1.125 1.125 0 0 Z " fill="#0A0E0E" transform="translate(1082,1545)"/>
<path d="M0 0 C3.12290635 0.48578543 5.99580359 0.9986012 9 2 C9.33 2.99 9.66 3.98 10 5 C8 7 8 7 6.0546875 7.1953125 C4.03645833 7.13020833 2.01822917 7.06510417 0 7 C0 4.69 0 2.38 0 0 Z " fill="#92A2A5" transform="translate(792,1500)"/>
<path d="M0 0 C0.99 0.33 1.98 0.66 3 1 C3 1.66 3 2.32 3 3 C3.66 3 4.32 3 5 3 C5.33 2.34 5.66 1.68 6 1 C6.33 1.99 6.66 2.98 7 4 C6.67 4.33 6.34 4.66 6 5 C6.66 5.66 7.32 6.32 8 7 C7.01 7 6.02 7 5 7 C5 7.66 5 8.32 5 9 C5.66 9.33 6.32 9.66 7 10 C6.34 10 5.68 10 5 10 C4.67 10.66 4.34 11.32 4 12 C2.99403703 11.0479279 1.99538437 10.08812654 1 9.125 C0.443125 8.59132813 -0.11375 8.05765625 -0.6875 7.5078125 C-2 6 -2 6 -2 4 C-1.01 3.67 -0.02 3.34 1 3 C0.67 2.01 0.34 1.02 0 0 Z " fill="#9AA8AC" transform="translate(849,1512)"/>
<path d="M0 0 C1.98 0.66 3.96 1.32 6 2 C5.34 3.65 4.68 5.3 4 7 C4.66 7 5.32 7 6 7 C5.67 8.98 5.34 10.96 5 13 C4.01 12.34 3.02 11.68 2 11 C2 10.34 2 9.68 2 9 C1.34 9 0.68 9 0 9 C-0.84454356 5.62182575 -1.10844919 3.32534757 0 0 Z " fill="#A6AEB0" transform="translate(915,1502)"/>
<path d="M0 0 C0 3 0 3 -1.5 4.6875 C-5.01194497 6.53127111 -8.10666407 6.6222955 -12 6 C-14.5 4.5 -14.5 4.5 -16 3 C-15.34 2.34 -14.68 1.68 -14 1 C-12.125 1.375 -12.125 1.375 -10 2 C-8.68 2 -7.36 2 -6 2 C-5.01 2.33 -4.02 2.66 -3 3 C-3 2.34 -3 1.68 -3 1 C-2.01 0.67 -1.02 0.34 0 0 Z " fill="#2A444B" transform="translate(866,1535)"/>
<path d="M0 0 C1.8871875 0.061875 1.8871875 0.061875 3.8125 0.125 C3.626875 0.74375 3.44125 1.3625 3.25 2 C2.57563824 4.16660178 2.57563824 4.16660178 3.8125 6.125 C0.1825 6.125 -3.4475 6.125 -7.1875 6.125 C-7.1875 4.805 -7.1875 3.485 -7.1875 2.125 C-4.09861478 0.06574319 -3.47814073 -0.1140374 0 0 Z " fill="#A4B0B4" transform="translate(908.1875,1499.875)"/>
<path d="M0 0 C2.97 0.33 5.94 0.66 9 1 C9.33 2.65 9.66 4.3 10 6 C7.27958849 6.75566986 5.4981783 7.13838286 2.75 6.375 C1 5 1 5 0.25 2.375 C0.1675 1.59125 0.085 0.8075 0 0 Z " fill="#173B44" transform="translate(798,1545)"/>
<path d="M0 0 C0.66 1.32 1.32 2.64 2 4 C5.3 4 8.6 4 12 4 C12 4.99 12 5.98 12 7 C9.09399739 8.25664978 7.20395416 9 4 9 C2 7 2 7 1 5 C0.01 4.34 -0.98 3.68 -2 3 C-1.34 3 -0.68 3 0 3 C0 2.01 0 1.02 0 0 Z " fill="#081212" transform="translate(1052,1542)"/>
<path d="M0 0 C0.886875 0.61875 1.77375 1.2375 2.6875 1.875 C5.46061184 3.65397741 7.9140354 4.91083602 11 6 C10.67 6.66 10.34 7.32 10 8 C6.37 8 2.74 8 -1 8 C-1.125 2.25 -1.125 2.25 0 0 Z " fill="#203F47" transform="translate(849,1520)"/>
<path d="M0 0 C0.66 0.33 1.32 0.66 2 1 C2 1.99 2 2.98 2 4 C2.66 4.33 3.32 4.66 4 5 C3.67 5.99 3.34 6.98 3 8 C2.34 8 1.68 8 1 8 C0.401875 8.66 -0.19625 9.32 -0.8125 10 C-3 12 -3 12 -5.75 12.25 C-6.4925 12.1675 -7.235 12.085 -8 12 C-8.33 11.34 -8.66 10.68 -9 10 C-8.071875 9.649375 -7.14375 9.29875 -6.1875 8.9375 C-2.0142355 6.40080981 -1.53814504 4.5289826 0 0 Z " fill="#97A0A2" transform="translate(974,1529)"/>
<path d="M0 0 C0.99 0.33 1.98 0.66 3 1 C2.25 7.75 2.25 7.75 0 10 C-3.625 10.125 -3.625 10.125 -7 10 C-5.68 9.67 -4.36 9.34 -3 9 C-3.33 7.02 -3.66 5.04 -4 3 C-2.68 2.67 -1.36 2.34 0 2 C0 1.34 0 0.68 0 0 Z " fill="#122021" transform="translate(1020,1529)"/>
<path d="M0 0 C-2.62767028 1.42546819 -4.27549914 2.03638668 -7.3125 2.4375 C-11.39057582 3.05957936 -14.2609555 4.31376424 -18 6 C-18.66 6 -19.32 6 -20 6 C-20 6.99 -20 7.98 -20 9 C-21.32 8.67 -22.64 8.34 -24 8 C-22.625 6.5 -22.625 6.5 -21 5 C-20.34 5 -19.68 5 -19 5 C-19 4.34 -19 3.68 -19 3 C-12.47059106 0.04328652 -7.12600133 -0.35368021 0 0 Z " fill="#919B9D" transform="translate(1019,1499)"/>
<path d="M0 0 C0.33 2.31 0.66 4.62 1 7 C-2.3 6.01 -5.6 5.02 -9 4 C-9 3.34 -9 2.68 -9 2 C-5.86501708 0.14223235 -3.62528568 -0.20140476 0 0 Z " fill="#19383F" transform="translate(831,1473)"/>
<path d="M0 0 C5.28 0.66 10.56 1.32 16 2 C15.01 2.495 15.01 2.495 14 3 C14 3.66 14 4.32 14 5 C9.545 5.495 9.545 5.495 5 6 C4.67 5.34 4.34 4.68 4 4 C1.98330173 2.86649466 1.98330173 2.86649466 0 2 C0 1.34 0 0.68 0 0 Z " fill="#172226" transform="translate(949,1545)"/>
<path d="M0 0 C0.33 0.66 0.66 1.32 1 2 C0.01 2 -0.98 2 -2 2 C-2 2.66 -2 3.32 -2 4 C-1.34 4.33 -0.68 4.66 0 5 C-3.63 4.67 -7.26 4.34 -11 4 C-10.67 2.68 -10.34 1.36 -10 0 C-6.64338305 -1.67830848 -3.63864406 -0.6353188 0 0 Z " fill="#A7AEB1" transform="translate(825,1479)"/>
<path d="M0 0 C0.33 1.32 0.66 2.64 1 4 C1.66 4 2.32 4 3 4 C3 5.32 3 6.64 3 8 C2.01 8 1.02 8 0 8 C-0.33 8.66 -0.66 9.32 -1 10 C-1.33 9.34 -1.66 8.68 -2 8 C-2.33 9.65 -2.66 11.3 -3 13 C-3.33 13 -3.66 13 -4 13 C-4.66 9.7 -5.32 6.4 -6 3 C-5.34 2.67 -4.68 2.34 -4 2 C-3.01 2.99 -2.02 3.98 -1 5 C-0.67 3.35 -0.34 1.7 0 0 Z " fill="#8F9395" transform="translate(1057,1531)"/>
<path d="M0 0 C2.33524782 2.25740623 4.18705073 4.2805761 6 7 C6 8.32 6 9.64 6 11 C4.35 10.67 2.7 10.34 1 10 C0.63883954 8.5225254 0.28624952 7.04295325 -0.0625 5.5625 C-0.25972656 4.73878906 -0.45695313 3.91507813 -0.66015625 3.06640625 C-0.82837891 2.04353516 -0.82837891 2.04353516 -1 1 C-0.67 0.67 -0.34 0.34 0 0 Z " fill="#3C6253" transform="translate(650,548)"/>
<path d="M0 0 C0.99 0.33 1.98 0.66 3 1 C4.2684375 0.7215625 4.2684375 0.7215625 5.5625 0.4375 C6.7690625 0.2209375 6.7690625 0.2209375 8 0 C8.66 0.66 9.32 1.32 10 2 C9.67 2.99 9.34 3.98 9 5 C9.66 5 10.32 5 11 5 C11 5.99 11 6.98 11 8 C10.505 7.731875 10.01 7.46375 9.5 7.1875 C6.0763054 5.56124507 2.55867715 4.30484829 -1 3 C-0.67 2.01 -0.34 1.02 0 0 Z " fill="#263D44" transform="translate(911,1496)"/>
<path d="M0 0 C1.32 0.99 2.64 1.98 4 3 C3.34 6.63 2.68 10.26 2 14 C1.67 14 1.34 14 1 14 C0.896875 13.236875 0.79375 12.47375 0.6875 11.6875 C0.24838314 8.9565157 0.24838314 8.9565157 -1.625 7.5 C-2.07875 7.005 -2.5325 6.51 -3 6 C-2.8125 3.375 -2.8125 3.375 -2 1 C-1.34 0.67 -0.68 0.34 0 0 Z " fill="#9BA2A1" transform="translate(997,1511)"/>
<path d="M0 0 C0.33 0.99 0.66 1.98 1 3 C-1.31 3.66 -3.62 4.32 -6 5 C-6.99 3.35 -7.98 1.7 -9 0 C-5.52176885 -1.15941038 -3.54104422 -0.70820884 0 0 Z " fill="#1D393F" transform="translate(870,1547)"/>
<path d="M0 0 C2.64 1.98 5.28 3.96 8 6 C7.67 6.66 7.34 7.32 7 8 C4 7 4 7 2 6 C2 6.99 2 7.98 2 9 C0.68 9 -0.64 9 -2 9 C-2 8.34 -2 7.68 -2 7 C-1.34 7 -0.68 7 0 7 C0 4.69 0 2.38 0 0 Z " fill="#293334" transform="translate(947,1539)"/>
<path d="M0 0 C0.99 0.33 1.98 0.66 3 1 C2.67 2.98 2.34 4.96 2 7 C2.66 7 3.32 7 4 7 C4 7.66 4 8.32 4 9 C1 10 1 10 -3 10 C-2.69201674 8.51988629 -2.378482 7.04092675 -2.0625 5.5625 C-1.88847656 4.73878906 -1.71445313 3.91507813 -1.53515625 3.06640625 C-1 1 -1 1 0 0 Z " fill="#A7AAAA" transform="translate(1031,1511)"/>
<path d="M0 0 C2.64 0.33 5.28 0.66 8 1 C8 1.66 8 2.32 8 3 C4.53846154 6 4.53846154 6 2 6 C2 5.34 2 4.68 2 4 C0.68 4 -0.64 4 -2 4 C-1.34 2.68 -0.68 1.36 0 0 Z " fill="#17383D" transform="translate(846,1546)"/>
<path d="M0 0 C0.33 0 0.66 0 1 0 C1.06058594 0.88042969 1.12117187 1.76085938 1.18359375 2.66796875 C1.26738281 3.82941406 1.35117187 4.99085937 1.4375 6.1875 C1.55931641 7.91033203 1.55931641 7.91033203 1.68359375 9.66796875 C1.95403812 12.51598171 2.37521747 15.21210482 3 18 C0 17 0 17 -2 15 C-2.125 11.875 -2.125 11.875 -2 9 C-1.67 9 -1.34 9 -1 9 C-0.67 6.03 -0.34 3.06 0 0 Z " fill="#2D3A3F" transform="translate(990,1518)"/>
<path d="M0 0 C5.02705917 0.12047418 8.09872551 0.24587237 12.0625 3.5625 C12.701875 4.366875 13.34125 5.17125 14 6 C7.9453125 6.1953125 7.9453125 6.1953125 6 6 C5.34 5.34 4.68 4.68 4 4 C4.33 3.01 4.66 2.02 5 1 C3.35 1 1.7 1 0 1 C0 0.67 0 0.34 0 0 Z " fill="#2C3B3F" transform="translate(1010,1505)"/>
<path d="M0 0 C0.66 0 1.32 0 2 0 C2 0.66 2 1.32 2 2 C3.65 2.33 5.3 2.66 7 3 C6.67 5.64 6.34 8.28 6 11 C3.3513141 7.80331012 1.06007659 4.60513403 -1 1 C-0.67 0.67 -0.34 0.34 0 0 Z " fill="#1E3338" transform="translate(977,1501)"/>
<path d="M0 0 C2.97 0.495 2.97 0.495 6 1 C6 1.66 6 2.32 6 3 C8.8509288 2.2981424 8.8509288 2.2981424 10 1 C10.99 1.33 11.98 1.66 13 2 C12.34 4.31 11.68 6.62 11 9 C10.54109375 8.60167969 10.0821875 8.20335937 9.609375 7.79296875 C6.47728415 5.08857938 3.36122541 2.42008229 0 0 Z " fill="#24434B" transform="translate(864,1519)"/>
<path d="M0 0 C0.13277344 0.62648438 0.26554688 1.25296875 0.40234375 1.8984375 C0.57894531 2.71570312 0.75554688 3.53296875 0.9375 4.375 C1.19853516 5.59316406 1.19853516 5.59316406 1.46484375 6.8359375 C1.92330693 9.029463 1.92330693 9.029463 3 11 C0.11424181 10.60196439 -0.82189513 10.20990931 -2.75 7.9375 C-3.1625 7.298125 -3.575 6.65875 -4 6 C-3.67 5.34 -3.34 4.68 -3 4 C-3.99 3.34 -4.98 2.68 -6 2 C-1.125 0 -1.125 0 0 0 Z " fill="#21424A" transform="translate(846,1509)"/>
<path d="M0 0 C0.33 1.65 0.66 3.3 1 5 C-2.63 5 -6.26 5 -10 5 C-10 4.34 -10 3.68 -10 3 C-8.70990357 2.49596232 -7.41786211 1.99690074 -6.125 1.5 C-5.04605469 1.08234375 -5.04605469 1.08234375 -3.9453125 0.65625 C-2 0 -2 0 0 0 Z " fill="#30685C" transform="translate(688,567)"/>
<path d="M0 0 C1.8874394 3.27156162 2.60106002 6.24996419 3 10 C2.67 10.99 2.34 11.98 2 13 C1.01 13 0.02 13 -1 13 C-1.02696365 11.20841511 -1.04637917 9.41671527 -1.0625 7.625 C-1.07410156 6.62726563 -1.08570313 5.62953125 -1.09765625 4.6015625 C-1 2 -1 2 0 0 Z " fill="#1C2627" transform="translate(1050,1532)"/>
<path d="M0 0 C0.66 0.33 1.32 0.66 2 1 C2 2.32 2 3.64 2 5 C2.66 5 3.32 5 4 5 C3.67 5.99 3.34 6.98 3 8 C-2.4611399 7.64766839 -2.4611399 7.64766839 -5 7 C-6.5 4.9375 -6.5 4.9375 -7 3 C-3.535 4.485 -3.535 4.485 0 6 C0 4.02 0 2.04 0 0 Z " fill="#1E443E" transform="translate(658,555)"/>
<path d="M0 0 C0.66 0.309375 1.32 0.61875 2 0.9375 C5.70476015 2.24960255 9.09263991 2.60264135 13 3 C6.80454545 6.20454545 6.80454545 6.20454545 2.3125 5.0625 C1.219375 4.711875 0.12625 4.36125 -1 4 C-0.67 2.68 -0.34 1.36 0 0 Z " fill="#162225" transform="translate(1001,1544)"/>
<path d="M0 0 C2.31 0.33 4.62 0.66 7 1 C6.67 2.32 6.34 3.64 6 5 C5.34 5 4.68 5 4 5 C3.67 6.32 3.34 7.64 3 9 C2.87625 8.195625 2.7525 7.39125 2.625 6.5625 C2.315625 5.2940625 2.315625 5.2940625 2 4 C1.34 3.67 0.68 3.34 0 3 C0 2.01 0 1.02 0 0 Z " fill="#A7ADAE" transform="translate(995,1508)"/>
<path d="M0 0 C0.33 0.66 0.66 1.32 1 2 C3.12576782 2.46651207 3.12576782 2.46651207 5.5625 2.625 C6.38878906 2.69976563 7.21507812 2.77453125 8.06640625 2.8515625 C8.70449219 2.90054687 9.34257813 2.94953125 10 3 C9.360625 3.309375 8.72125 3.61875 8.0625 3.9375 C6.06389179 4.8345163 6.06389179 4.8345163 5 6 C2.66055264 5.71269945 0.3260857 5.38063221 -2 5 C-1.125 1.125 -1.125 1.125 0 0 Z " fill="#152227" transform="translate(1117,1472)"/>
<path d="M0 0 C0.66 0 1.32 0 2 0 C1.67 1.65 1.34 3.3 1 5 C2.32 5.33 3.64 5.66 5 6 C2 8 2 8 -2 8 C-2.125 5.125 -2.125 5.125 -2 2 C-1.34 1.34 -0.68 0.68 0 0 Z " fill="#153544" transform="translate(674,561)"/>
<path d="M0 0 C1.98 0 3.96 0 6 0 C6 1.65 6 3.3 6 5 C5.01 5 4.02 5 3 5 C2.34 5.66 1.68 6.32 1 7 C1 6.34 1 5.68 1 5 C0.34 5 -0.32 5 -1 5 C-0.67 3.35 -0.34 1.7 0 0 Z " fill="#193A3C" transform="translate(793,1507)"/>
<path d="M0 0 C0.598125 0.165 1.19625 0.33 1.8125 0.5 C4.11344336 1.1114124 4.11344336 1.1114124 7 1 C7 3.31 7 5.62 7 8 C6.34 8 5.68 8 5 8 C4.01 9.485 4.01 9.485 3 11 C2.45627049 7.94152152 2 5.11227195 2 2 C1.34 1.34 0.68 0.68 0 0 Z " fill="#1D2B2D" transform="translate(1048,1497)"/>
<path d="M0 0 C2.06723714 3.10085571 2.24497423 3.72931681 2.1953125 7.23046875 C2.18886719 8.03291016 2.18242188 8.83535156 2.17578125 9.66210938 C2.15902344 10.49548828 2.14226563 11.32886719 2.125 12.1875 C2.11597656 13.03248047 2.10695313 13.87746094 2.09765625 14.74804688 C2.07410703 16.83215243 2.03823647 18.91611217 2 21 C1.67 21 1.34 21 1 21 C1 15.72 1 10.44 1 5 C0.01 4.67 -0.98 4.34 -2 4 C-1.34 2.68 -0.68 1.36 0 0 Z " fill="#1E3237" transform="translate(915,1515)"/>
<path d="M0 0 C2.94289954 2.94289954 2.97327103 5.11473658 3.09765625 9.234375 C3.08605469 10.39453125 3.07445312 11.5546875 3.0625 12.75 C3.05347656 13.92046875 3.04445313 15.0909375 3.03515625 16.296875 C3.02355469 17.18890625 3.01195312 18.0809375 3 19 C2.67 19 2.34 19 2 19 C1.92652344 17.93458984 1.92652344 17.93458984 1.8515625 16.84765625 C1.73941406 15.46900391 1.73941406 15.46900391 1.625 14.0625 C1.55539062 13.14597656 1.48578125 12.22945312 1.4140625 11.28515625 C1.20910156 10.15400391 1.20910156 10.15400391 1 9 C0.34 8.67 -0.32 8.34 -1 8 C-0.67 5.36 -0.34 2.72 0 0 Z " fill="#8E9B9C" transform="translate(981,1510)"/>
<path d="M0 0 C0.66 0.33 1.32 0.66 2 1 C1.67 2.98 1.34 4.96 1 7 C0.360625 7.12375 -0.27875 7.2475 -0.9375 7.375 C-1.9584375 7.684375 -1.9584375 7.684375 -3 8 C-3.33 8.66 -3.66 9.32 -4 10 C-5.32 9.34 -6.64 8.68 -8 8 C-7.05125 7.79375 -6.1025 7.5875 -5.125 7.375 C-1.70833333 6.29166667 -1.70833333 6.29166667 -0.625 2.875 C-0.41875 1.92625 -0.2125 0.9775 0 0 Z " fill="#2A4449" transform="translate(874,1537)"/>
<path d="M0 0 C1.32 0.33 2.64 0.66 4 1 C3.67 2.65 3.34 4.3 3 6 C1.02 6.33 -0.96 6.66 -3 7 C-3.33 6.01 -3.66 5.02 -4 4 C-2.68 3.67 -1.36 3.34 0 3 C0 2.01 0 1.02 0 0 Z " fill="#1A3C46" transform="translate(858,1507)"/>
<path d="M0 0 C0.99 0.66 1.98 1.32 3 2 C3 3.32 3 4.64 3 6 C2.01 6 1.02 6 0 6 C0 7.98 0 9.96 0 12 C-0.33 12 -0.66 12 -1 12 C-1.22162329 10.37675914 -1.42689803 8.751279 -1.625 7.125 C-1.74101563 6.22007812 -1.85703125 5.31515625 -1.9765625 4.3828125 C-1.98429688 3.59648438 -1.99203125 2.81015625 -2 2 C-1.34 1.34 -0.68 0.68 0 0 Z " fill="#1E3C2D" transform="translate(648,540)"/>
<path d="M0 0 C2.31 0.33 4.62 0.66 7 1 C7 1.33 7 1.66 7 2 C4.69 2.66 2.38 3.32 0 4 C0.33 4.99 0.66 5.98 1 7 C-0.32 7 -1.64 7 -3 7 C-3 6.34 -3 5.68 -3 5 C-3.66 4.67 -4.32 4.34 -5 4 C-4.360625 3.71125 -3.72125 3.4225 -3.0625 3.125 C-0.84793921 2.17176549 -0.84793921 2.17176549 0 0 Z " fill="#A9ABAE" transform="translate(964,1540)"/>
<path d="M0 0 C0.33 0.99 0.66 1.98 1 3 C-1.97 6.3 -4.94 9.6 -8 13 C-8 9.00717059 -6.52191924 7.84668408 -4 4.8125 C-3.2575 3.91144531 -2.515 3.01039063 -1.75 2.08203125 C-1.1725 1.39496094 -0.595 0.70789063 0 0 Z " fill="#08352F" transform="translate(713,552)"/>
<path d="M0 0 C0.66 0.66 1.32 1.32 2 2 C-6.42857143 3.28571429 -6.42857143 3.28571429 -11 2 C-6.93150591 -0.71232939 -4.83523216 -0.30699887 0 0 Z " fill="#29373E" transform="translate(966,1506)"/>
<path d="M0 0 C1.65 0 3.3 0 5 0 C5.66 1.32 6.32 2.64 7 4 C2.25 5.125 2.25 5.125 0 4 C0 2.68 0 1.36 0 0 Z " fill="#A2A5AD" transform="translate(1099,1500)"/>
<path d="M0 0 C-0.66 1.32 -1.32 2.64 -2 4 C-4.31 4 -6.62 4 -9 4 C-6.35287314 0.09233654 -4.86783735 -1.62261245 0 0 Z " fill="#A3B1B2" transform="translate(868,1501)"/>
<path d="M0 0 C1.65 0.33 3.3 0.66 5 1 C5 1.66 5 2.32 5 3 C0.545 4.485 0.545 4.485 -4 6 C-2.68 4.02 -1.36 2.04 0 0 Z " fill="#20383C" transform="translate(810,1474)"/>
<path d="M0 0 C0.53625 0.763125 1.0725 1.52625 1.625 2.3125 C4.20205814 5.22864474 6.45814404 6.4705622 10 8 C10 8.66 10 9.32 10 10 C4.60869565 9.04347826 4.60869565 9.04347826 2 8 C0.19834312 5.07230757 0 3.42791372 0 0 Z " fill="#0B3C28" transform="translate(648,555)"/>
<path d="M0 0 C2.475 0.99 2.475 0.99 5 2 C4.01 2.33 3.02 2.66 2 3 C2.33 4.32 2.66 5.64 3 7 C0.125 7.125 0.125 7.125 -3 7 C-3.66 6.34 -4.32 5.68 -5 5 C-3.35 4.34 -1.7 3.68 0 3 C0 2.01 0 1.02 0 0 Z " fill="#909EA1" transform="translate(853,1540)"/>
<path d="M0 0 C1.90318884 2.85478326 2.4619099 4.41941308 3.125 7.6875 C3.29257813 8.49574219 3.46015625 9.30398438 3.6328125 10.13671875 C3.75398438 10.75160156 3.87515625 11.36648438 4 12 C1.525 11.01 1.525 11.01 -1 10 C-0.67 6.7 -0.34 3.4 0 0 Z " fill="#202527" transform="translate(1076,1518)"/>
<path d="M0 0 C2 3 2 3 2 6 C0.35 6.66 -1.3 7.32 -3 8 C-2.25 2.25 -2.25 2.25 0 0 Z M-4 8 C-3 12 -3 12 -3 12 Z " fill="#939597" transform="translate(1082,1514)"/>
<path d="M0 0 C0.66 0.33 1.32 0.66 2 1 C1.01 1.33 0.02 1.66 -1 2 C-1.33 2.99 -1.66 3.98 -2 5 C-1.34 5.66 -0.68 6.32 0 7 C-2.97 6.67 -5.94 6.34 -9 6 C-3.30379747 1.25316456 -3.30379747 1.25316456 0 0 Z " fill="#293539" transform="translate(974,1543)"/>
<path d="M0 0 C2.475 0.495 2.475 0.495 5 1 C5.33 2.65 5.66 4.3 6 6 C5.01 6.495 5.01 6.495 4 7 C3.67 7.99 3.34 8.98 3 10 C2.690625 8.906875 2.38125 7.81375 2.0625 6.6875 C1.41662103 4.44592006 0.7376883 2.2130649 0 0 Z " fill="#233432" transform="translate(1031,1504)"/>
<path d="M0 0 C2.10827055 3.16240582 2.33817465 4.50657469 2.625 8.1875 C2.69976563 9.08855469 2.77453125 9.98960937 2.8515625 10.91796875 C2.90054688 11.60503906 2.94953125 12.29210937 3 13 C2.01 12.67 1.02 12.34 0 12 C0 8.04 0 4.08 0 0 Z " fill="#33482D" transform="translate(888,285)"/>
<path d="M0 0 C1.9375 0.3125 1.9375 0.3125 4 1 C4.33 1.99 4.66 2.98 5 4 C4.34 4.66 3.68 5.32 3 6 C2.67 6.66 2.34 7.32 2 8 C1.34 7.67 0.68 7.34 0 7 C0 4.69 0 2.38 0 0 Z " fill="#174249" transform="translate(792,1544)"/>
<path d="M0 0 C0.66 0 1.32 0 2 0 C1.9278125 0.61488281 1.855625 1.22976563 1.78125 1.86328125 C1.6884375 2.67152344 1.595625 3.47976563 1.5 4.3125 C1.4071875 5.11300781 1.314375 5.91351562 1.21875 6.73828125 C0.95186537 9.11896555 0.95186537 9.11896555 1 12 C0.01 12 -0.98 12 -2 12 C-1.33333333 8 -0.66666667 4 0 0 Z " fill="#25302D" transform="translate(1073,1510)"/>
<path d="M0 0 C0.66 0.33 1.32 0.66 2 1 C1 4 1 4 -2 6 C-2.73343428 9.06556598 -2.73343428 9.06556598 -3 12 C-3.33 12 -3.66 12 -4 12 C-4.33292585 7.75519536 -4.43885872 5.64457375 -2 2.0625 C-1.34 1.381875 -0.68 0.70125 0 0 Z " fill="#2E444C" transform="translate(899,1508)"/>
<path d="M0 0 C-3.08809695 1.76462683 -4.23312136 2 -8 2 C-8 2.99 -8 3.98 -8 5 C-9.32 5.33 -10.64 5.66 -12 6 C-9.40401988 0.00927665 -6.20086134 -0.23399477 0 0 Z " fill="#3D555B" transform="translate(866,1505)"/>
<path d="M0 0 C2.475 0.99 2.475 0.99 5 2 C3.68 2.33 2.36 2.66 1 3 C0.67 2.01 0.34 1.02 0 0 Z M-1 3 C-0.34 3 0.32 3 1 3 C0.34 4.65 -0.32 6.3 -1 8 C-1.99 7.67 -2.98 7.34 -4 7 C-3.34 6.67 -2.68 6.34 -2 6 C-1.67 5.01 -1.34 4.02 -1 3 Z " fill="#949DA1" transform="translate(972,1501)"/>
<path d="M0 0 C2.89932357 2.39509338 3.50168276 4.31245243 4 8 C1.36 6.68 -1.28 5.36 -4 4 C-2.68 2.68 -1.36 1.36 0 0 Z " fill="#223338" transform="translate(1026,1497)"/>
<path d="M0 0 C0.33 0.99 0.66 1.98 1 3 C1.66 3 2.32 3 3 3 C3 4.98 3 6.96 3 9 C1.68 8.34 0.36 7.68 -1 7 C-0.67 4.69 -0.34 2.38 0 0 Z " fill="#94A3A7" transform="translate(800,1488)"/>
<path d="M0 0 C0.33 0.66 0.66 1.32 1 2 C-1.64 2.66 -4.28 3.32 -7 4 C-6.67 4.99 -6.34 5.98 -6 7 C-7.32 6.67 -8.64 6.34 -10 6 C-9.67 5.01 -9.34 4.02 -9 3 C-6.93359375 2.05078125 -6.93359375 2.05078125 -4.4375 1.3125 C-3.61121094 1.06113281 -2.78492188 0.80976562 -1.93359375 0.55078125 C-1.29550781 0.36902344 -0.65742187 0.18726563 0 0 Z " fill="#214B4B" transform="translate(682,566)"/>
<path d="M0 0 C1.125 3.75 1.125 3.75 0 6 C-1.65 6 -3.3 6 -5 6 C-5 4.35 -5 2.7 -5 1 C-4.01 1.33 -3.02 1.66 -2 2 C-1.34 1.34 -0.68 0.68 0 0 Z " fill="#A6AEB4" transform="translate(868,1539)"/>
<path d="M0 0 C4.875 4.75 4.875 4.75 6 7 C4.35 7.33 2.7 7.66 1 8 C0.17361624 5.10765685 0 3.11257569 0 0 Z " fill="#223136" transform="translate(993,1536)"/>
<path d="M0 0 C0.33 0.99 0.66 1.98 1 3 C1.66 3 2.32 3 3 3 C3.33 2.34 3.66 1.68 4 1 C4.33 2.98 4.66 4.96 5 7 C4.01 7.495 4.01 7.495 3 8 C2.731875 7.360625 2.46375 6.72125 2.1875 6.0625 C1.11332248 3.66868314 1.11332248 3.66868314 -2 3 C-1.34 2.01 -0.68 1.02 0 0 Z " fill="#112125" transform="translate(1082,1504)"/>
<path d="M0 0 C0 0.99 0 1.98 0 3 C-6.93 2.505 -6.93 2.505 -14 2 C-14 1.67 -14 1.34 -14 1 C-4.58997722 -0.14806378 -4.58997722 -0.14806378 0 0 Z " fill="#193D46" transform="translate(873,1496)"/>
<path d="M0 0 C0.33 0.66 0.66 1.32 1 2 C0.34 2 -0.32 2 -1 2 C-0.67 3.65 -0.34 5.3 0 7 C-1.65 7.33 -3.3 7.66 -5 8 C-3.8141763 4.62496331 -2.72426311 2.35277269 0 0 Z " fill="#8D989C" transform="translate(806,1480)"/>
<path d="M0 0 C0.99 0 1.98 0 3 0 C3 0.66 3 1.32 3 2 C4.32 1.34 5.64 0.68 7 0 C6.67 1.65 6.34 3.3 6 5 C4.125 4.75 4.125 4.75 2 4 C0.75 1.9375 0.75 1.9375 0 0 Z " fill="#1B3A42" transform="translate(793,1488)"/>
<path d="M0 0 C0.66 0.33 1.32 0.66 2 1 C0.90716423 2.03295436 -0.19970579 3.05107835 -1.3125 4.0625 C-1.92738281 4.63097656 -2.54226563 5.19945312 -3.17578125 5.78515625 C-3.77777344 6.18605469 -4.37976563 6.58695312 -5 7 C-5.99 6.67 -6.98 6.34 -8 6 C-2.25 1.125 -2.25 1.125 0 0 Z " fill="#112010" transform="translate(658,504)"/>
<path d="M0 0 C2.31 0 4.62 0 7 0 C6.01 0.495 6.01 0.495 5 1 C5 1.66 5 2.32 5 3 C2.36 3 -0.28 3 -3 3 C-2.01 2.67 -1.02 2.34 0 2 C0 1.34 0 0.68 0 0 Z " fill="#1C282C" transform="translate(958,1547)"/>
<path d="M0 0 C0.66 0.33 1.32 0.66 2 1 C2 2.98 2 4.96 2 7 C1.01 7.495 1.01 7.495 0 8 C-3 4.25 -3 4.25 -3 2 C-2.01 1.34 -1.02 0.68 0 0 Z " fill="#12363C" transform="translate(838,1544)"/>
<path d="M0 0 C1.61949011 2.57213134 2.04408751 3.67669159 1.625 6.75 C1.41875 7.4925 1.2125 8.235 1 9 C-2 5.375 -2 5.375 -2 2 C-1.34 2 -0.68 2 0 2 C0 1.34 0 0.68 0 0 Z " fill="#949A9D" transform="translate(1051,1508)"/>
<path d="M0 0 C0.33 0.66 0.66 1.32 1 2 C2.65 1.67 4.3 1.34 6 1 C5.34 2.32 4.68 3.64 4 5 C1.69 4.67 -0.62 4.34 -3 4 C-2.34 3.67 -1.68 3.34 -1 3 C-0.67 2.01 -0.34 1.02 0 0 Z " fill="#162123" transform="translate(1074,1496)"/>
<path d="M0 0 C2.97 0 5.94 0 9 0 C7.515 1.98 7.515 1.98 6 4 C3.53199953 2.84826645 1.95216435 1.95216435 0 0 Z " fill="#073339" transform="translate(681,599)"/>
<path d="M0 0 C2.97 0.495 2.97 0.495 6 1 C5.38125 1.2475 4.7625 1.495 4.125 1.75 C1.64931313 3.20628639 1.04874998 4.37812506 0 7 C-0.93423645 3.98968256 -1.04449911 3.13349732 0 0 Z " fill="#849CA1" transform="translate(846,1538)"/>
<path d="M0 0 C0.33 0.66 0.66 1.32 1 2 C1.66 2 2.32 2 3 2 C1.86695008 5.39914975 0.87481525 6.05254451 -2 8 C-1.47731534 5.23723823 -0.89130413 2.6739124 0 0 Z " fill="#A2A7A6" transform="translate(1083,1525)"/>
<path d="M0 0 C0.99 0 1.98 0 3 0 C3 2.64 3 5.28 3 8 C2.01 8 1.02 8 0 8 C0 5.36 0 2.72 0 0 Z " fill="#8E9698" transform="translate(975,1520)"/>
<path d="M0 0 C1.9375 0.5625 1.9375 0.5625 4 2 C4.75 5.625 4.75 5.625 5 9 C4.67 8.01 4.34 7.02 4 6 C3.34 6 2.68 6 2 6 C2 5.01 2 4.02 2 3 C1.34 3 0.68 3 0 3 C0 2.01 0 1.02 0 0 Z " fill="#2E4747" transform="translate(912,1509)"/>
<path d="M0 0 C-0.66 0.66 -1.32 1.32 -2 2 C-2 2.33 -2 2.66 -2 3 C-4.31 3 -6.62 3 -9 3 C-5.83583464 -0.30799106 -4.50236011 -1.35070803 0 0 Z " fill="#89A0A4" transform="translate(860,1500)"/>
<path d="M0 0 C0.763125 0.20625 1.52625 0.4125 2.3125 0.625 C2.3125 1.615 2.3125 2.605 2.3125 3.625 C-0.3275 2.965 -2.9675 2.305 -5.6875 1.625 C-2.6875 -0.375 -2.6875 -0.375 0 0 Z " fill="#284849" transform="translate(829.6875,1476.375)"/>
<path d="M0 0 C2.3125 -0.25 2.3125 -0.25 5 0 C6.8125 2 6.8125 2 8 4 C6.35 4.33 4.7 4.66 3 5 C2.01 3.35 1.02 1.7 0 0 Z " fill="#13353A" transform="translate(861,1547)"/>
<path d="M0 0 C0 0.66 0 1.32 0 2 C0.99 2.33 1.98 2.66 3 3 C2.34 3 1.68 3 1 3 C0.67 3.66 0.34 4.32 0 5 C0 4.34 0 3.68 0 3 C-1.65 3.33 -3.3 3.66 -5 4 C-4.67 3.01 -4.34 2.02 -4 1 C-2 0 -2 0 0 0 Z " fill="#080A09" transform="translate(1117,1544)"/>
<path d="M0 0 C1.32 0 2.64 0 4 0 C3.34 2.64 2.68 5.28 2 8 C1.34 7.67 0.68 7.34 0 7 C0.2784375 6.1028125 0.2784375 6.1028125 0.5625 5.1875 C1.22093687 2.83591238 1.22093687 2.83591238 0 0 Z " fill="#8D9599" transform="translate(1104,1500)"/>
<path d="M0 0 C2.31 0 4.62 0 7 0 C7.66 1.32 8.32 2.64 9 4 C6.03 3.01 3.06 2.02 0 1 C0 0.67 0 0.34 0 0 Z " fill="#899EA3" transform="translate(855,1524)"/>
<path d="M0 0 C0.66 0 1.32 0 2 0 C2 0.66 2 1.32 2 2 C2.66 2.33 3.32 2.66 4 3 C1.6875 4.125 1.6875 4.125 -1 5 C-1.99 4.34 -2.98 3.68 -4 3 C-2.68 2.34 -1.36 1.68 0 1 C0 0.67 0 0.34 0 0 Z " fill="#A4B3B3" transform="translate(863,1520)"/>
<path d="M0 0 C0.99 0 1.98 0 3 0 C3 1.65 3 3.3 3 5 C0 5 0 5 -2 4 C-1.34 2.68 -0.68 1.36 0 0 Z " fill="#9CA7AA" transform="translate(849,1504)"/>
<path d="M0 0 C1.32 0 2.64 0 4 0 C3.67 2.97 3.34 5.94 3 9 C1.35649921 5.71299843 0.58678331 3.52069985 0 0 Z " fill="#949A9D" transform="translate(1042,1505)"/>
<path d="M0 0 C0.33 0 0.66 0 1 0 C1 1.65 1 3.3 1 5 C-1.31 5 -3.62 5 -6 5 C-5.195625 4.360625 -4.39125 3.72125 -3.5625 3.0625 C-1.7249496 1.59396498 -1.7249496 1.59396498 0 0 Z " fill="#1E3A3B" transform="translate(798,1495)"/>
<path d="M0 0 C-0.99 1.485 -0.99 1.485 -2 3 C-4.97 2.505 -4.97 2.505 -8 2 C-8 1.34 -8 0.68 -8 0 C-4.71023192 -1.09658936 -3.28696233 -0.79953138 0 0 Z " fill="#1E2F33" transform="translate(1023,1497)"/>
<path d="M0 0 C-1.65 0.33 -3.3 0.66 -5 1 C-4.67 1.99 -4.34 2.98 -4 4 C-5.32 3.67 -6.64 3.34 -8 3 C-8 2.34 -8 1.68 -8 1 C-3.375 -1.125 -3.375 -1.125 0 0 Z " fill="#285851" transform="translate(683,569)"/>
<path d="M0 0 C0.66 0 1.32 0 2 0 C2.66 2.64 3.32 5.28 4 8 C3.01 8 2.02 8 1 8 C0.67 5.36 0.34 2.72 0 0 Z " fill="#032A11" transform="translate(646,552)"/>
</svg>
